{
    "asset": {
        "generator": "Khronos glTF Blender I/O v3.6.27",
        "version": "2.0"
    },
    "scene": 0,
    "scenes": [
        {
            "name": "Scene",
            "nodes": [
                0,
                1,
                2,
                3,
                4,
                5,
                6,
                7
            ]
        }
    ],
    "nodes": [
        {
            "mesh": 0,
            "name": "SM_vmcobd0ja_VarA",
            "rotation": [
                0.7071068286895752,
                0,
                0,
                0.7071068286895752
            ],
            "scale": [
                0.009999999776482582,
                0.009999999776482582,
                0.009999999776482582
            ]
        },
        {
            "mesh": 1,
            "name": "SM_vmcobd0ja_VarB",
            "rotation": [
                0.7071068286895752,
                0,
                0,
                0.7071068286895752
            ],
            "scale": [
                0.009999999776482582,
                0.009999999776482582,
                0.009999999776482582
            ]
        },
        {
            "mesh": 2,
            "name": "SM_vmcobd0ja_VarC",
            "rotation": [
                0.7071068286895752,
                0,
                0,
                0.7071068286895752
            ],
            "scale": [
                0.009999999776482582,
                0.009999999776482582,
                0.009999999776482582
            ]
        },
        {
            "mesh": 3,
            "name": "SM_vmcobd0ja_VarD",
            "rotation": [
                0.7071068286895752,
                0,
                0,
                0.7071068286895752
            ],
            "scale": [
                0.009999999776482582,
                0.009999999776482582,
                0.009999999776482582
            ]
        },
        {
            "mesh": 4,
            "name": "SM_vmcobd0ja_VarE",
            "rotation": [
                0.7071068286895752,
                0,
                0,
                0.7071068286895752
            ],
            "scale": [
                0.009999999776482582,
                0.009999999776482582,
                0.009999999776482582
            ]
        },
        {
            "mesh": 5,
            "name": "SM_vmcobd0ja_VarF",
            "rotation": [
                0.7071068286895752,
                0,
                0,
                0.7071068286895752
            ],
            "scale": [
                0.009999999776482582,
                0.009999999776482582,
                0.009999999776482582
            ]
        },
        {
            "mesh": 6,
            "name": "SM_vmcobd0ja_VarG",
            "rotation": [
                0.7071068286895752,
                0,
                0,
                0.7071068286895752
            ],
            "scale": [
                0.009999999776482582,
                0.009999999776482582,
                0.009999999776482582
            ]
        },
        {
            "mesh": 7,
            "name": "SM_vmcobd0ja_VarH",
            "rotation": [
                0.7071068286895752,
                0,
                0,
                0.7071068286895752
            ],
            "scale": [
                0.009999999776482582,
                0.009999999776482582,
                0.009999999776482582
            ]
        }
    ],
    "materials": [
        {
            "alphaMode": "BLEND",
            "doubleSided": true,
            "name": "MI_vmcobd0ja",
            "normalTexture": {
                "index": 0
            },
            "occlusionTexture": {
                "index": 1
            },
            "pbrMetallicRoughness": {
                "baseColorTexture": {
                    "index": 2
                },
                "metallicRoughnessTexture": {
                    "index": 1
                }
            },
            "extras": {
                "params": [
                    {
                        "Name": "Health Offset",
                        "Value": 12
                    },
                    {
                        "Name": "mask Branches Health",
                        "Value": false
                    },
                    {
                        "Name": "Split Translucency Controls",
                        "Value": true
                    },
                    {
                        "Name": "Base Color Controls",
                        "Value": [
                            1,
                            0.699999988079071,
                            1,
                            0
                        ]
                    },
                    {
                        "Name": "Translucency Controls Leaves",
                        "Value": [
                            1,
                            2,
                            0.800000011920929,
                            0
                        ]
                    }
                ]
            }
        }
    ],
    "meshes": [
        {
            "name": "SM_vmcobd0ja_VarA",
            "primitives": [
                {
                    "attributes": {
                        "COLOR_0": 0,
                        "POSITION": 1,
                        "TEXCOORD_0": 2
                    },
                    "indices": 3,
                    "material": 0
                }
            ]
        },
        {
            "name": "SM_vmcobd0ja_VarB",
            "primitives": [
                {
                    "attributes": {
                        "COLOR_0": 4,
                        "POSITION": 5,
                        "TEXCOORD_0": 6
                    },
                    "indices": 7,
                    "material": 0
                }
            ]
        },
        {
            "name": "SM_vmcobd0ja_VarC",
            "primitives": [
                {
                    "attributes": {
                        "COLOR_0": 8,
                        "POSITION": 9,
                        "TEXCOORD_0": 10
                    },
                    "indices": 11,
                    "material": 0
                }
            ]
        },
        {
            "name": "SM_vmcobd0ja_VarD",
            "primitives": [
                {
                    "attributes": {
                        "COLOR_0": 12,
                        "POSITION": 13,
                        "TEXCOORD_0": 14
                    },
                    "indices": 15,
                    "material": 0
                }
            ]
        },
        {
            "name": "SM_vmcobd0ja_VarE",
            "primitives": [
                {
                    "attributes": {
                        "COLOR_0": 16,
                        "POSITION": 17,
                        "TEXCOORD_0": 18
                    },
                    "indices": 19,
                    "material": 0
                }
            ]
        },
        {
            "name": "SM_vmcobd0ja_VarF",
            "primitives": [
                {
                    "attributes": {
                        "COLOR_0": 20,
                        "POSITION": 21,
                        "TEXCOORD_0": 22
                    },
                    "indices": 23,
                    "material": 0
                }
            ]
        },
        {
            "name": "SM_vmcobd0ja_VarG",
            "primitives": [
                {
                    "attributes": {
                        "COLOR_0": 24,
                        "POSITION": 25,
                        "TEXCOORD_0": 26
                    },
                    "indices": 27,
                    "material": 0
                }
            ]
        },
        {
            "name": "SM_vmcobd0ja_VarH",
            "primitives": [
                {
                    "attributes": {
                        "COLOR_0": 28,
                        "POSITION": 29,
                        "TEXCOORD_0": 30
                    },
                    "indices": 31,
                    "material": 0
                }
            ]
        }
    ],
    "textures": [
        {
            "sampler": 0,
            "source": 0
        },
        {
            "sampler": 0,
            "source": 1
        },
        {
            "sampler": 0,
            "source": 2
        }
    ],
    "images": [
        {
            "mimeType": "image/png",
            "name": "T_vmcobd0ja_4K_N",
            "uri": "Textures/T_vmcobd0ja_4K_N.png",
            "extras": {
                "mipgen": "sharpen_4"
            }
        },
        {
            "mimeType": "image/png",
            "name": "T_vmcobd0ja_4K_ORT",
            "uri": "Textures/T_vmcobd0ja_4K_ORT.png",
            "extras": {
                "compression": "mask",
                "textureSlot": "Mask",
                "materialIndex": 0,
                "mipgen": "sharpen_6",
                "alphaCoverage": [
                    0.333,
                    0,
                    0,
                    0
                ],
                "scaleMips": true
            }
        },
        {
            "mimeType": "image/png",
            "name": "T_vmcobd0ja_4K_B",
            "uri": "Textures/T_vmcobd0ja_4K_B.png",
            "extras": {
                "mipgen": "sharpen_4"
            }
        }
    ],
    "accessors": [
        {
            "bufferView": 0,
            "componentType": 5123,
            "count": 4857,
            "normalized": true,
            "type": "VEC4"
        },
        {
            "bufferView": 1,
            "componentType": 5126,
            "count": 4857,
            "max": [
                14.151885986328125,
                6.139786243438721,
                0.15152519941329956
            ],
            "min": [
                -12.157292366027832,
                -23.163475036621094,
                -64.3629150390625
            ],
            "type": "VEC3"
        },
        {
            "bufferView": 2,
            "componentType": 5126,
            "count": 4857,
            "type": "VEC2"
        },
        {
            "bufferView": 3,
            "componentType": 5123,
            "count": 18000,
            "type": "SCALAR"
        },
        {
            "bufferView": 4,
            "componentType": 5123,
            "count": 16288,
            "normalized": true,
            "type": "VEC4"
        },
        {
            "bufferView": 5,
            "componentType": 5126,
            "count": 16288,
            "max": [
                19.323345184326172,
                18.50672149658203,
                0.028392547741532326
            ],
            "min": [
                -21.317001342773438,
                -26.755285263061523,
                -46.9937858581543
            ],
            "type": "VEC3"
        },
        {
            "bufferView": 6,
            "componentType": 5126,
            "count": 16288,
            "type": "VEC2"
        },
        {
            "bufferView": 7,
            "componentType": 5123,
            "count": 59754,
            "type": "SCALAR"
        },
        {
            "bufferView": 8,
            "componentType": 5123,
            "count": 40312,
            "normalized": true,
            "type": "VEC4"
        },
        {
            "bufferView": 9,
            "componentType": 5126,
            "count": 40312,
            "max": [
                35.03141784667969,
                52.89767837524414,
                0.15160278975963593
            ],
            "min": [
                -42.442176818847656,
                -44.3756103515625,
                -68.85964965820312
            ],
            "type": "VEC3"
        },
        {
            "bufferView": 10,
            "componentType": 5126,
            "count": 40312,
            "type": "VEC2"
        },
        {
            "bufferView": 11,
            "componentType": 5123,
            "count": 151350,
            "type": "SCALAR"
        },
        {
            "bufferView": 12,
            "componentType": 5123,
            "count": 19576,
            "normalized": true,
            "type": "VEC4"
        },
        {
            "bufferView": 13,
            "componentType": 5126,
            "count": 19576,
            "max": [
                27.370628356933594,
                40.466793060302734,
                0.15160278975963593
            ],
            "min": [
                -27.56841468811035,
                -35.06187438964844,
                -42.17921447753906
            ],
            "type": "VEC3"
        },
        {
            "bufferView": 14,
            "componentType": 5126,
            "count": 19576,
            "type": "VEC2"
        },
        {
            "bufferView": 15,
            "componentType": 5123,
            "count": 73413,
            "type": "SCALAR"
        },
        {
            "bufferView": 16,
            "componentType": 5123,
            "count": 17337,
            "normalized": true,
            "type": "VEC4"
        },
        {
            "bufferView": 17,
            "componentType": 5126,
            "count": 17337,
            "max": [
                15.400986671447754,
                34.49425506591797,
                0.1215132400393486
            ],
            "min": [
                -22.132890701293945,
                -22.98572540283203,
                -74.56732940673828
            ],
            "type": "VEC3"
        },
        {
            "bufferView": 18,
            "componentType": 5126,
            "count": 17337,
            "type": "VEC2"
        },
        {
            "bufferView": 19,
            "componentType": 5123,
            "count": 64599,
            "type": "SCALAR"
        },
        {
            "bufferView": 20,
            "componentType": 5123,
            "count": 34508,
            "normalized": true,
            "type": "VEC4"
        },
        {
            "bufferView": 21,
            "componentType": 5126,
            "count": 34508,
            "max": [
                29.180728912353516,
                25.96883773803711,
                1.0967167615890503
            ],
            "min": [
                -33.448402404785156,
                -22.32748794555664,
                -49.19864273071289
            ],
            "type": "VEC3"
        },
        {
            "bufferView": 22,
            "componentType": 5126,
            "count": 34508,
            "type": "VEC2"
        },
        {
            "bufferView": 23,
            "componentType": 5123,
            "count": 123474,
            "type": "SCALAR"
        },
        {
            "bufferView": 24,
            "componentType": 5123,
            "count": 10010,
            "normalized": true,
            "type": "VEC4"
        },
        {
            "bufferView": 25,
            "componentType": 5126,
            "count": 10010,
            "max": [
                23.524812698364258,
                27.81576156616211,
                0.1082535833120346
            ],
            "min": [
                -27.977001190185547,
                -22.4652156829834,
                -39.624542236328125
            ],
            "type": "VEC3"
        },
        {
            "bufferView": 26,
            "componentType": 5126,
            "count": 10010,
            "type": "VEC2"
        },
        {
            "bufferView": 27,
            "componentType": 5123,
            "count": 36441,
            "type": "SCALAR"
        },
        {
            "bufferView": 28,
            "componentType": 5123,
            "count": 7330,
            "normalized": true,
            "type": "VEC4"
        },
        {
            "bufferView": 29,
            "componentType": 5126,
            "count": 7330,
            "max": [
                16.837711334228516,
                17.002071380615234,
                0.061430782079696655
            ],
            "min": [
                -24.700931549072266,
                -26.34347152709961,
                -65.67037963867188
            ],
            "type": "VEC3"
        },
        {
            "bufferView": 30,
            "componentType": 5126,
            "count": 7330,
            "type": "VEC2"
        },
        {
            "bufferView": 31,
            "componentType": 5123,
            "count": 26343,
            "type": "SCALAR"
        }
    ],
    "bufferViews": [
        {
            "buffer": 0,
            "byteLength": 38856,
            "byteOffset": 0,
            "target": 34962
        },
        {
            "buffer": 0,
            "byteLength": 58284,
            "byteOffset": 38856,
            "target": 34962
        },
        {
            "buffer": 0,
            "byteLength": 38856,
            "byteOffset": 97140,
            "target": 34962
        },
        {
            "buffer": 0,
            "byteLength": 36000,
            "byteOffset": 135996,
            "target": 34963
        },
        {
            "buffer": 0,
            "byteLength": 130304,
            "byteOffset": 171996,
            "target": 34962
        },
        {
            "buffer": 0,
            "byteLength": 195456,
            "byteOffset": 302300,
            "target": 34962
        },
        {
            "buffer": 0,
            "byteLength": 130304,
            "byteOffset": 497756,
            "target": 34962
        },
        {
            "buffer": 0,
            "byteLength": 119508,
            "byteOffset": 628060,
            "target": 34963
        },
        {
            "buffer": 0,
            "byteLength": 322496,
            "byteOffset": 747568,
            "target": 34962
        },
        {
            "buffer": 0,
            "byteLength": 483744,
            "byteOffset": 1070064,
            "target": 34962
        },
        {
            "buffer": 0,
            "byteLength": 322496,
            "byteOffset": 1553808,
            "target": 34962
        },
        {
            "buffer": 0,
            "byteLength": 302700,
            "byteOffset": 1876304,
            "target": 34963
        },
        {
            "buffer": 0,
            "byteLength": 156608,
            "byteOffset": 2179004,
            "target": 34962
        },
        {
            "buffer": 0,
            "byteLength": 234912,
            "byteOffset": 2335612,
            "target": 34962
        },
        {
            "buffer": 0,
            "byteLength": 156608,
            "byteOffset": 2570524,
            "target": 34962
        },
        {
            "buffer": 0,
            "byteLength": 146826,
            "byteOffset": 2727132,
            "target": 34963
        },
        {
            "buffer": 0,
            "byteLength": 138696,
            "byteOffset": 2873960,
            "target": 34962
        },
        {
            "buffer": 0,
            "byteLength": 208044,
            "byteOffset": 3012656,
            "target": 34962
        },
        {
            "buffer": 0,
            "byteLength": 138696,
            "byteOffset": 3220700,
            "target": 34962
        },
        {
            "buffer": 0,
            "byteLength": 129198,
            "byteOffset": 3359396,
            "target": 34963
        },
        {
            "buffer": 0,
            "byteLength": 276064,
            "byteOffset": 3488596,
            "target": 34962
        },
        {
            "buffer": 0,
            "byteLength": 414096,
            "byteOffset": 3764660,
            "target": 34962
        },
        {
            "buffer": 0,
            "byteLength": 276064,
            "byteOffset": 4178756,
            "target": 34962
        },
        {
            "buffer": 0,
            "byteLength": 246948,
            "byteOffset": 4454820,
            "target": 34963
        },
        {
            "buffer": 0,
            "byteLength": 80080,
            "byteOffset": 4701768,
            "target": 34962
        },
        {
            "buffer": 0,
            "byteLength": 120120,
            "byteOffset": 4781848,
            "target": 34962
        },
        {
            "buffer": 0,
            "byteLength": 80080,
            "byteOffset": 4901968,
            "target": 34962
        },
        {
            "buffer": 0,
            "byteLength": 72882,
            "byteOffset": 4982048,
            "target": 34963
        },
        {
            "buffer": 0,
            "byteLength": 58640,
            "byteOffset": 5054932,
            "target": 34962
        },
        {
            "buffer": 0,
            "byteLength": 87960,
            "byteOffset": 5113572,
            "target": 34962
        },
        {
            "buffer": 0,
            "byteLength": 58640,
            "byteOffset": 5201532,
            "target": 34962
        },
        {
            "buffer": 0,
            "byteLength": 52686,
            "byteOffset": 5260172,
            "target": 34963
        }
    ],
    "samplers": [
        {
            "magFilter": 9729,
            "minFilter": 9987
        }
    ],
    "buffers": [
        {
            "byteLength": 5312860,
            "uri": "vmcobd0ja_tier_0.bin"
        }
    ],
    "extras": {
        "tier": 0
    }
}